# xmcd
#
# Track frame offsets:
#	150
#	19858
#	40624
#	56898
#	77041
#	97940
#	118886
#	138886
#	157948
#	180507
#	204821
#
# Disc length: 2968
#
# Revision: 1
# Processed by: cddbd v1.5.1PL0 Copyright (c) Steve Scherf et al.
# Submitted via: CDex 1.50
# Normalized: r0:TRMNUM
#
DISCID=810b960b
DTITLE=BoA - Miracle
DYEAR=2002
DGENRE=Pop
TTITLE0=Destiny
TTITLE1=Every Heart
TTITLE2=VALENTI
TTITLE3=Feering deep inside
TTITLE4=Share your heart(WITH ME)
TTITLE5=Happiness
TTITLE6=Snow White
TTITLE7=Nobody but you
TTITLE8=Next Step
TTITLE9=Nothing's gonna change
TTITLE10=Listen to my Heart(Bonus Track)
EXTD=YEAR: 2002
EXTT0=
EXTT1=
EXTT2=
EXTT3=
EXTT4=
EXTT5=
EXTT6=
EXTT7=
EXTT8=
EXTT9=
EXTT10=
PLAYORDER=
